<?xml version="1.0" standalone="no"?>
<!DOCTYPE svg PUBLIC "-//W3C//DTD SVG 20010904//EN"
 "http://www.w3.org/TR/2001/REC-SVG-20010904/DTD/svg10.dtd">
<svg version="1.0" xmlns="http://www.w3.org/2000/svg"
 width="32.000000pt" height="32.000000pt" viewBox="0 0 32.000000 32.000000"
 preserveAspectRatio="xMidYMid meet">
<metadata>
Created by potrace 1.10, written by Peter Selinger 2001-2011
</metadata>
<g transform="translate(0.000000,32.000000) scale(0.100000,-0.100000)"
fill="#ffff00" stroke="none">
<path d="M40 160 l0 -120 45 0 c35 0 45 4 45 16 0 12 -7 15 -22 12 -23 -4 -23
-2 -23 92 0 94 0 96 23 92 15 -3 22 0 22 12 0 12 -10 16 -45 16 l-45 0 0 -120z"/>
<path d="M180 265 c0 -9 9 -15 23 -15 21 0 22 -2 19 -90 -3 -81 -5 -90 -23
-90 -10 0 -19 -7 -19 -15 0 -11 12 -15 45 -15 l45 0 0 120 0 120 -45 0 c-33 0
-45 -4 -45 -15z" />
</g>
</svg>
